<svg xmlns="http://www.w3.org/2000/svg" viewBox="20 23.5 160 153.1" width="200" height="200">
  <g>
    <path d="M173 133.2l-74.2 36.6-71.9-36.2-6.5 3.4 78.5 39.6 6.6-3.4 74.1-36.5-6.6-3.5z" fill="#f75f4b"/>
    <path d="M105.5 125.1l74.1-36.5-6.6-3.4-74.2 36.6-71.9-36.3-6.5 3.4 78.5 39.6 6.6-3.4z" fill="#f75f4b"/>
    <path d="M98.8 145.7l-71.9-36.2-6.6 3.4 78.5 39.6 6.6-3.4 74.1-36.5-6.6-3.4-74.1 36.5z" fill="#f75f4b"/>
    <path d="M180 64.1l-74.5-37.2-6.6-3.4L20 64l78.9 40.5 6.6-3.4 74.5-37zM32.9 64l65.9-33.7L166.2 64 98.8 97.8 32.9 64z" fill="#151d38"/>
  </g>
</svg>
